<svg xmlns="http://www.w3.org/2000/svg" xmlns:xlink="http://www.w3.org/1999/xlink" viewBox="0,0,256,256" width="64px" height="64px" fill-rule="nonzero"><g fill="#477592" fill-rule="nonzero" stroke="none" stroke-width="1" stroke-linecap="butt" stroke-linejoin="miter" stroke-miterlimit="10" stroke-dasharray="" stroke-dashoffset="0" font-family="none" font-weight="none" font-size="none" text-anchor="none" style="mix-blend-mode: normal"><g transform="scale(8,8)"><path d="M3,4l3,1v17l-3,1h9.5c0.12891,0 0.33594,0 0.5,0v4l-3,1h9.5c2.22266,0 9.5,0.5625 9.5,-9.4375c0,-8.06641 -4.63281,-9.30859 -7.65625,-9.5c-1.81641,-5.34766 -6.94531,-5.0625 -8.84375,-5.0625zM9.0625,5h4.0625c1.65625,0 4.28516,-0.11328 5.375,4h-8.5l3,1v12h-3.9375zM16.0625,10h2.65625c0.17188,0.98828 0.28125,2.14453 0.28125,3.5625c0,5.30469 -1.38281,7.26953 -2.9375,8zM21.625,10.0625c2.03516,0.24609 4.375,1.55469 4.375,8.5c0,8.78516 -3.75391,8.4375 -5.875,8.4375h-4.0625v-4.25c2.78906,-0.60156 5.9375,-2.59766 5.9375,-9.1875c0,-1.35547 -0.14062,-2.5 -0.375,-3.5z"></path></g></g></svg>